<mxfile host="app.diagrams.net" modified="2023-03-13T07:17:16.221Z" agent="5.0 (Windows NT 10.0; Win64; x64) AppleWebKit/537.36 (KHTML, like Gecko) Chrome/111.0.0.0 Safari/537.36" etag="Tw0-oRpHxvYPJDvA0IFD" version="21.0.4" type="github" pages="2">
  <diagram name="Sequence Diagram" id="y4f-0l9bqbzRcfI7EzgJ">
    <mxGraphModel dx="1434" dy="760" grid="1" gridSize="10" guides="1" tooltips="1" connect="1" arrows="1" fold="1" page="1" pageScale="1" pageWidth="850" pageHeight="1100" math="0" shadow="0">
      <root>
        <mxCell id="0" />
        <mxCell id="1" parent="0" />
      </root>
    </mxGraphModel>
  </diagram>
  <diagram id="q_6s5jWmbdj7KrAS0xcY" name="Activity Diagram">
    <mxGraphModel dx="1434" dy="760" grid="1" gridSize="10" guides="1" tooltips="1" connect="1" arrows="1" fold="1" page="1" pageScale="1" pageWidth="850" pageHeight="1100" math="0" shadow="0">
      <root>
        <mxCell id="0" />
        <mxCell id="1" parent="0" />
      </root>
    </mxGraphModel>
  </diagram>
</mxfile>
